# xmcd
#
# Track frame offsets:
#	150
#	21809
#	39201
#	56287
#	73814
#	97384
#	115654
#	130953
#	146906
#	163408
#	181728
#	199657
#	217032
#	231294
#	255210
#	272182
#	288694
#	303362
#	314257
#	331974
#	348100
#
# Disc length: 4914
#
# Revision: 3
# Processed by: cddbd v1.5.1PL0 Copyright (c) Steve Scherf et al.
# Submitted via: cddb2pg 0.002
# Normalized: r2:DSETVAR1
#
DISCID=40133015
DTITLE=Various Artist - Celtic Rock
DYEAR=1900
DGENRE=
TTITLE0=Simple Minds - Waterfront
TTITLE1=Deacon Blue - Dignity
TTITLE2=Altered Images - Don't talk to me about love
TTITLE3=Danny Wilson - Mary's Prayer
TTITLE4=Rod Stewart - Maggie May
TTITLE5=Eddi Reader - Patience of angels
TTITLE6=The Bluebells - Young at heart
TTITLE7=Hue and Cry - Labour of love
TTITLE8=Orange Juice - Rip it up
TTITLE9=Ultravox - Dancing with tears in my eyes
TTITLE10=The Proclaimers - Letter from America
TTITLE11=Big Country - In a big country
TTITLE12=Aztec Camera - Oblivious
TTITLE13=Midge Ure - If I was
TTITLE14=Sinead O'Connor - Mandinka
TTITLE15=Runrig - Hearthammer
TTITLE16=The Alarm - 68 Guns
TTITLE17=The Undertones - Teenage Kicks
TTITLE18=Edwyn Collins - A Girl Like You
TTITLE19=Fairground Attraction - Perfect
TTITLE20=U2 - I still haven t found what I m
EXTD=
EXTT0=
EXTT1=
EXTT2=
EXTT3=
EXTT4=
EXTT5=
EXTT6=
EXTT7=
EXTT8=
EXTT9=
EXTT10=
EXTT11=
EXTT12=
EXTT13=
EXTT14=
EXTT15=
EXTT16=
EXTT17=
EXTT18=
EXTT19=
EXTT20=
PLAYORDER=
